<svg xmlns="http://www.w3.org/2000/svg" xmlns:xlink="http://www.w3.org/1999/xlink" width="28" height="20" viewBox="0 0 28 20">
  <defs>
    <clipPath id="clip-path">
      <rect id="Rettangolo_21" data-name="Rettangolo 21" width="28" height="20" rx="2" fill="#fff"/>
    </clipPath>
  </defs>
  <g id="flag-gb-svgrepo-com" clip-path="url(#clip-path)">
    <rect id="Rettangolo_19" data-name="Rettangolo 19" width="28" height="20" rx="2" fill="#fff"/>
    <g id="Raggruppa_16" data-name="Raggruppa 16">
      <rect id="Rettangolo_20" data-name="Rettangolo 20" width="28" height="20" fill="#0a17a7"/>
      <path id="Tracciato_4" data-name="Tracciato 4" d="M-1.282-1.916l11.949,8.06V-1.333h6.667V6.143l11.949-8.06L30.774.294,21.326,6.667H28v6.667H21.326l9.447,6.372-1.491,2.211-11.949-8.06v7.477H10.667V13.857l-11.949,8.06-1.491-2.211,9.447-6.372H0V6.667H6.674L-2.774.294Z" fill="#fff" fill-rule="evenodd"/>
      <path id="Tracciato_5" data-name="Tracciato 5" d="M18.668,6.332,31.333-2" fill="none" stroke="#db1f35" stroke-linecap="round" stroke-width="0.667"/>
      <path id="Tracciato_6" data-name="Tracciato 6" d="M20.013,13.7,31.367,21.35" fill="none" stroke="#db1f35" stroke-linecap="round" stroke-width="0.667"/>
      <path id="Tracciato_7" data-name="Tracciato 7" d="M8.006,6.31-3.837-1.671" fill="none" stroke="#db1f35" stroke-linecap="round" stroke-width="0.667"/>
      <path id="Tracciato_8" data-name="Tracciato 8" d="M9.29,13.6-3.837,22.31" fill="none" stroke="#db1f35" stroke-linecap="round" stroke-width="0.667"/>
      <path id="Tracciato_9" data-name="Tracciato 9" d="M0,12H12v8h4V12H28V8H16V0H12V8H0Z" fill="#e6273e" fill-rule="evenodd"/>
    </g>
  </g>
</svg>
