<?xml version="1.0" encoding="utf-8"?>
<!-- Generator: Adobe Illustrator 27.7.0, SVG Export Plug-In . SVG Version: 6.00 Build 0)  -->
<svg version="1.1" id="Livello_1" xmlns="http://www.w3.org/2000/svg" xmlns:xlink="http://www.w3.org/1999/xlink" x="0px" y="0px"
	 viewBox="0 0 244.1 51" style="enable-background:new 0 0 244.1 51;" xml:space="preserve">
<style type="text/css">
	.st0{enable-background:new    ;}
	.st1{fill:#FFFFFF;}
	.st2{fill:#CCFF66;}
</style>
<g id="Raggruppa_5" transform="translate(-895 -13)">
	<g id="Raggruppa_4" transform="translate(-18 7)">
		<g class="st0">
			<path class="st1" d="M921.9,6c2.4,0,4.6,1.1,6.2,3h-1.7c-1.4-1.7-3.3-2.6-5.2-2.5c-4,0.3-6.9,5-6.5,10.5c0.4,5.5,3.9,9.8,7.9,9.5
				c1.2-0.1,2.2-0.5,3.2-1.3h1.1c-1.4,1.1-3.1,1.8-5,1.8c-4.9,0-8.9-4.7-8.9-10.5C913,10.7,917,6,921.9,6z"/>
			<path class="st1" d="M942.8,8.6v15.7c0,1.1,0.1,2.5,1,2.6h-3.3c0.8-0.2,1-1.5,1-2.6v-6.2c-0.4-0.7-1-1.4-1.7-1.8
				c-0.9-0.6-2-0.9-3.1-0.9c-1.1,0-2.1,0.3-3.1,0.9c-0.9,0.6-1.6,1.5-2,2.5c0,0.1-0.1,0.2-0.1,0.4v5.2c0,1.1,0.2,2.5,1,2.6h-3.3
				c0.8-0.2,1-1.5,1-2.6V8.6c0-1.1-0.1-2.5-1-2.6h3.3c-0.8,0.1-1,1.5-1,2.6V18c0.5-0.8,1.1-1.6,1.9-2.1c1-0.7,2.2-1,3.3-1
				c1.1,0,2.3,0.3,3.3,1c0.6,0.4,1.1,0.8,1.5,1.4V8.6c0-1.1-0.1-2.5-1-2.6h3.3C942.9,6.1,942.8,7.5,942.8,8.6z"/>
			<path class="st1" d="M947.8,8.6v15.7c0,1.1,0.2,2.5,1,2.6h-3.3c0.8-0.2,1-1.5,1-2.6V8.6c0-1.1-0.1-2.5-1-2.6h3.3
				C947.9,6.1,947.8,7.5,947.8,8.6z"/>
			<path class="st1" d="M958.1,6l5.8,19.4c0.4,0.9,0.9,1.4,1.6,1.6h-3.7c0.5-0.3,0.8-0.9,0.7-1.6l-1.2-3.9c-0.3-0.5-0.7-0.9-1.2-1.3
				c-1-0.8-2.1-1.3-3.3-1.3c-1.1,0-2.2,0.5-3.1,1.3c-0.8,0.7-1.4,1.6-1.7,2.6c-0.3,0.9-0.5,1.7-0.8,2.6c-0.1,0.7,0.1,1.2,0.6,1.6
				h-2.7c0.7-0.1,1.2-0.6,1.6-1.5v-0.1l0.7-2.2c0-0.2,0.1-0.4,0.2-0.6l5-16.6H958.1z M961,20.3l-4.1-13.6l-4.2,13.9
				c0.2-0.3,0.5-0.6,0.8-0.8c1-0.8,2.1-1.4,3.4-1.4c1.3,0,2.5,0.5,3.6,1.4C960.7,20,960.8,20.2,961,20.3z"/>
			<path class="st1" d="M979.1,27h-3.3c0.7-0.2-0.2-1.5-1.1-2.6l-2.7-3.5h-3.6v3.5c0,1.1,0.2,2.5,1,2.6H966c0.8-0.2,1-1.5,1-2.6V8.7
				c0-1.1-0.1-2.5-1-2.6h5.7c6.1-0.3,8.2,3.8,8.2,7.8c0,3.7-2.7,6.4-6.6,6.9l2.8,3.5C977,25.5,978.2,26.8,979.1,27z M978.2,13.5
				c-0.1-3.8-1.8-6.5-6.1-7h-3.4c-0.3,0.5-0.4,1.4-0.4,2.2v11.7h3.4C975.9,20.5,978.3,17.4,978.2,13.5z"/>
			<path class="st1" d="M989.1,6l5.8,19.4c0.4,0.9,0.9,1.4,1.6,1.6h-3.7c0.5-0.3,0.8-0.9,0.7-1.6l-1.2-3.9c-0.3-0.5-0.7-0.9-1.2-1.3
				c-1-0.8-2.1-1.3-3.3-1.3c-1.1,0-2.2,0.5-3.1,1.3c-0.8,0.7-1.4,1.6-1.7,2.6c-0.3,0.9-0.5,1.7-0.8,2.6c-0.1,0.7,0.1,1.2,0.6,1.6
				h-2.7c0.7-0.1,1.2-0.6,1.6-1.5v-0.1l0.7-2.2c0-0.2,0.1-0.4,0.2-0.6l5-16.6H989.1z M992.1,20.3L988,6.8l-4.2,13.9
				c0.2-0.3,0.5-0.6,0.8-0.8c1-0.8,2.1-1.4,3.4-1.4c1.3,0,2.5,0.5,3.6,1.4C991.7,20,991.9,20.2,992.1,20.3z"/>
			<path class="st1" d="M1014.9,6c2.4,0,4.6,1.1,6.2,3h-1.7c-1.4-1.7-3.3-2.6-5.2-2.5c-4,0.3-6.9,5-6.5,10.5
				c0.4,5.5,3.9,9.8,7.9,9.5c1.2-0.1,2.2-0.5,3.2-1.3h1.1c-1.4,1.1-3.1,1.8-5,1.8c-4.9,0-8.9-4.7-8.9-10.5
				C1006,10.7,1010,6,1014.9,6z"/>
			<path class="st1" d="M1029.7,6l5.8,19.4c0.4,0.9,0.9,1.4,1.6,1.6h-3.7c0.5-0.3,0.8-0.9,0.7-1.6l-1.2-3.9
				c-0.3-0.5-0.7-0.9-1.2-1.3c-1-0.8-2.1-1.3-3.3-1.3c-1.1,0-2.2,0.5-3.1,1.3c-0.8,0.7-1.4,1.6-1.7,2.6c-0.3,0.9-0.5,1.7-0.8,2.6
				c-0.1,0.7,0.1,1.2,0.6,1.6h-2.7c0.7-0.1,1.2-0.6,1.6-1.5v-0.1l0.7-2.2c0-0.2,0.1-0.4,0.2-0.6l5-16.6H1029.7z M1032.7,20.3
				l-4.1-13.6l-4.2,13.9c0.2-0.3,0.5-0.6,0.8-0.8c1-0.8,2.1-1.4,3.4-1.4c1.3,0,2.5,0.5,3.6,1.4C1032.3,20,1032.5,20.2,1032.7,20.3z"
				/>
			<path class="st1" d="M1054.1,8.7v15.7c0,1.1,0.1,2.5,1,2.6h-3.3c0.8-0.2,1-1.5,1-2.6V8.7c0-0.5,0-1.1-0.1-1.5l-5.9,19l-0.2,0.8
				l-7.1-19.6c-0.1,0.4-0.1,0.8-0.1,1.3v15.7c0,1.1,0.1,2.5,1,2.6h-2.4c0.8-0.2,1-1.5,1-2.6V8.7c0-1.1-0.2-2.5-1-2.6h2.4l6.6,18.1
				l5.5-17.7c-0.1-0.2-0.3-0.4-0.6-0.4h3.3C1054.2,6.2,1054.1,7.6,1054.1,8.7z"/>
			<path class="st1" d="M1071.4,13.9c0,4.1-3.4,7.1-8.1,7h-4v3.5c0,1.1,0.1,2.5,1,2.6h-3.3c0.8-0.2,1-1.5,1-2.6V8.7
				c0-1.1-0.2-2.5-1-2.6h6.3C1069.4,5.7,1071.4,9.8,1071.4,13.9z M1069.7,13.5c-0.1-3.8-1.9-6.5-6.4-7v0h-3.7
				c-0.3,0.5-0.4,1.4-0.4,2.2v11.7h4C1067.3,20.5,1069.8,17.4,1069.7,13.5z"/>
			<path class="st1" d="M1078.4,6l5.8,19.4c0.4,0.9,0.9,1.4,1.7,1.6h-3.7c0.5-0.3,0.8-0.9,0.7-1.6l-1.2-3.9
				c-0.3-0.5-0.7-0.9-1.2-1.3c-1-0.8-2.1-1.3-3.3-1.3c-1.1,0-2.2,0.5-3.1,1.3c-0.8,0.7-1.4,1.6-1.7,2.6c-0.3,0.9-0.5,1.7-0.8,2.6
				c-0.1,0.7,0.1,1.2,0.6,1.6h-2.7c0.7-0.1,1.2-0.6,1.6-1.5v-0.1l0.7-2.2c0-0.2,0.1-0.4,0.2-0.6l5-16.6H1078.4z M1081.4,20.3
				l-4.1-13.6l-4.2,13.9c0.2-0.3,0.5-0.6,0.8-0.8c1-0.8,2.1-1.4,3.4-1.4c1.3,0,2.5,0.5,3.6,1.4C1081,20,1081.2,20.2,1081.4,20.3z"/>
			<path class="st1" d="M1087.4,24.4V8.7c0-1.1-0.2-2.5-1-2.6h2.3l12,19.9c0.1-0.5,0.1-1.1,0.1-1.6l0,0.1V8.6l0,0.1
				c0-1.1-0.1-2.5-1-2.6h1l0,0v0h1.4c-0.8,0.2-1,1.5-1,2.6v15.7c0,1.1,0.1,2.5,1,2.6h-2.3l-12-19.9c-0.1,0.5-0.1,1-0.1,1.6v15.7
				c0,1.1,0.2,2.5,1,2.6h-2.4C1087.3,26.8,1087.4,25.5,1087.4,24.4z"/>
			<path class="st1" d="M1122,16.5c0,5.8-4,10.5-8.9,10.5c-4.9,0-8.9-4.7-8.9-10.5s4-10.5,8.9-10.5C1118,6.1,1122,10.7,1122,16.5z
				 M1112.3,6.5c-4,0.3-6.9,5-6.5,10.5c0.4,5.5,3.9,9.8,7.9,9.5c4-0.3,6.9-5,6.5-10.5C1119.8,10.5,1116.3,6.3,1112.3,6.5z"/>
			<path class="st1" d="M1134.6,8.6l-10,15.7c-0.5,0.8-1,1.7-1,2.2h10.8c0.6-0.1,1.2-0.4,1.4-0.7v1.1h-15.2c0.9-0.2,1.9-1.5,2.7-2.6
				l10-15.7c0.5-0.8,1-1.6,1-2.2h-10.9c-0.6,0-1.2,0.3-1.4,0.7V6h15.3C1136.4,6.1,1135.4,7.5,1134.6,8.6z"/>
			<path class="st1" d="M1150.7,8.6l-10,15.7c-0.5,0.8-1,1.7-1,2.2h10.8c0.6-0.1,1.2-0.4,1.4-0.7v1.1h-15.2c0.9-0.2,1.9-1.5,2.7-2.6
				l10-15.7c0.5-0.8,1-1.6,1-2.2h-10.9c-0.6,0-1.2,0.3-1.4,0.7V6h15.3C1152.5,6.1,1151.4,7.5,1150.7,8.6z"/>
			<path class="st1" d="M1156.2,8.6v15.7c0,1.1,0.2,2.5,1,2.6h-3.3c0.8-0.2,1-1.5,1-2.6V8.6c0-1.1-0.1-2.5-1-2.6h3.3
				C1156.3,6.1,1156.2,7.5,1156.2,8.6z"/>
		</g>
		<g class="st0">
			<path class="st2" d="M993.1,40.3l-0.6,0.5c-0.2-0.6-0.6-1.7-1.6-1.6c-0.8,0-1.2,0.5-1.3,1.2c-0.2,0.8-0.1,1.9-0.1,2.9v0.6h2.2
				l-0.2,0.3h-2v7c0,0.8,0.1,1.7,0.6,1.8h-2.2c0.5-0.1,0.6-1,0.6-1.8v-8c0-1.6,0.1-2.6,0.3-3.2c0.4-0.9,1.1-1,2-1
				C992.6,38.9,992.9,39.9,993.1,40.3z"/>
			<path class="st2" d="M1000,53h-2.2c0.4-0.1,0.5-0.5,0.6-1c-0.5,0.5-1.2,1-3,1c-1.8,0-3.4-1-3.5-2.6c-0.3-4.5,4.9-3.4,6.4-3.9
				c-0.2-1.4-0.8-2.9-3.1-2.8c-0.2,0-0.4,0.1-0.5,0.1c-0.9,0.3-1.6,1.3-2,2.6l-0.7-0.5c0.6-1.4,1.5-2.3,3-2.5
				c3.5-0.4,4.4,1.5,4.3,4.8v3.1C999.3,52,999.4,52.9,1000,53z M998.4,46.8c-1.6,0.5-4.7-0.1-5.2,2.3c-0.2,1.3,0,3.1,2.2,3.4
				c1.7,0.2,2.6-0.6,3-0.9c0-0.2,0-0.3,0-0.5v-3.3C998.4,47.6,998.4,47.2,998.4,46.8z"/>
			<path class="st2" d="M1007.4,50.6c-0.1,1.8-1.7,2.5-3.3,2.4c-1,0-2.3-0.3-2.8-1.3c-0.2-0.3-0.3-0.6-0.3-1l0.7-0.1
				c0.2,1.5,1.1,2,2.5,2.1c1.3,0,2.3-0.8,2.3-2.2c0.1-2.4-3.8-1.4-5.1-3.6c-0.2-0.4-0.3-0.9-0.3-1.4c0.1-1.8,1.7-2.5,3.3-2.5
				c1.3,0,2.9,0.6,3.1,2.1l-0.7,0.5c-0.2-1.5-1.1-2.3-2.4-2.3c-1.3,0-2.4,0.8-2.4,2.2c0,0.5,0.1,0.9,0.4,1.2c1,1,3.7,0.6,4.8,2.4
				C1007.3,49.6,1007.4,50.1,1007.4,50.6z"/>
			<path class="st2" d="M1016.7,53h-2.2c0.6-0.1,0.6-1,0.6-1.8v-2.6c0-1.2,0.2-2.9-0.5-3.9c-0.5-0.8-1.3-1.2-2.2-1.1
				c-1.6,0.1-2.2,1.1-2.4,3v4.6c0,0.8,0.1,1.7,0.6,1.8h-2.2c0.5-0.1,0.6-1,0.6-1.8v-9.8c0-0.8,0-1.3-0.5-1.4l0.5-0.4l0.9-0.7v5.5
				c0.6-0.8,1.4-1.2,2.7-1.2c1.3,0,2.2,0.4,2.8,1.2c0.6,1,0.5,2.5,0.5,3.8v2.9C1016.1,52,1016.2,52.9,1016.7,53z"/>
			<path class="st2" d="M1019.8,53h-2.2c0.5-0.1,0.6-1,0.6-1.8v-5.6c0-0.8,0-1.3-0.5-1.4l0.5-0.4l0.9-0.7v8
				C1019.2,52,1019.3,52.9,1019.8,53z M1018.1,41.9c0.1-0.4,0.5-0.6,0.8-0.5c0.3,0.1,0.5,0.5,0.4,0.9c-0.1,0.4-0.5,0.6-0.8,0.5
				C1018.1,42.7,1017.9,42.3,1018.1,41.9z"/>
			<path class="st2" d="M1029.9,48.1c0,2.7-2,4.9-4.5,4.9s-4.5-2.2-4.5-4.9s2-4.8,4.5-4.8S1029.9,45.5,1029.9,48.1z M1028.7,47.9
				c-0.2-2.5-1.8-4.4-3.6-4.3c-1.8,0.1-3.2,2.2-3,4.7c0.2,2.5,1.8,4.4,3.6,4.3C1027.5,52.6,1028.9,50.4,1028.7,47.9z"/>
			<path class="st2" d="M1039.1,53h-2.2c0.6-0.1,0.6-1,0.6-1.8v-2.6c0-1.2,0.2-2.9-0.5-3.9c-0.5-0.8-1.3-1.2-2.2-1.1
				c-1.6,0.1-2.2,1.1-2.4,3v4.6c0,0.8,0.1,1.7,0.6,1.8h-2.2c0.5-0.1,0.6-1,0.6-1.8v-5.6c0-0.8,0-1.3-0.5-1.4l0.5-0.4l0.9-0.7v1.3
				c0.6-0.8,1.4-1.2,2.7-1.2c1.3,0,2.2,0.4,2.8,1.2c0.6,1,0.5,2.5,0.5,3.8v2.9C1038.5,52,1038.6,52.9,1039.1,53z"/>
			<path class="st2" d="M1052.5,50.6c-0.1,1.8-1.7,2.5-3.3,2.4c-1,0-2.3-0.3-2.8-1.3c-0.2-0.3-0.3-0.6-0.3-1l0.7-0.1
				c0.2,1.5,1.1,2,2.5,2.1c1.3,0,2.3-0.8,2.3-2.2c0.1-2.4-3.8-1.4-5.1-3.6c-0.2-0.4-0.3-0.9-0.3-1.4c0.1-1.8,1.7-2.5,3.3-2.5
				c1.3,0,2.9,0.6,3.1,2.1l-0.7,0.5c-0.2-1.5-1.1-2.3-2.4-2.3c-1.3,0-2.4,0.8-2.4,2.2c0,0.5,0.1,0.9,0.4,1.2c1,1,3.7,0.6,4.8,2.4
				C1052.5,49.6,1052.6,50.1,1052.5,50.6z"/>
			<path class="st2" d="M1057.5,52.5c-0.8,0.8-2.5,0.6-2.9-0.5c-0.3-0.6-0.3-1.7-0.3-3.2v-4.5h-0.5v-0.3h0.5v-0.8
				c0-0.6,0-1.1-0.5-1.2l0.5-0.4l0.9-0.7v3h1.5l-0.2,0.3h-1.4v4.5c0,1.1,0,2.1,0.1,2.9c0.1,0.5,0.3,0.9,0.8,1
				C1056.6,52.9,1056.9,52.8,1057.5,52.5z"/>
			<path class="st2" d="M1065,45.1l-1.1,2.9l-0.6,1.5l-2.2,5.8l-0.1,0.2c-0.3,0.8-0.2,1.4,0.1,1.5h-1.6c0.6-0.1,1-1,1.3-1.8l1-2.6v0
				l-3-7.5c-0.3-0.8-0.7-1.7-1.3-1.8h2.2c-0.5,0.1-0.2,1,0.1,1.8l2.6,6.4l2.4-6.4l0,0.1c-0.4,0.7,0.5-1.7,0-1.8h0.6v0l0,0h0.9
				C1065.7,43.4,1065.3,44.3,1065,45.1z"/>
			<path class="st2" d="M1069,53h-2.2c0.5-0.1,0.6-1,0.6-1.8v-9.8c0-0.8,0-1.3-0.5-1.4l0.5-0.4l0.9-0.7v12.2
				C1068.3,52,1068.4,52.9,1069,53z"/>
			<path class="st2" d="M1071.5,45v6.2c0,0.8,0.1,1.7,0.6,1.8h-2.2c0.5-0.1,0.6-1,0.6-1.8v-5.6c0-0.8,0-1.3-0.5-1.4l0.5-0.4l0.9-0.7
				V45z M1073.2,51.5c0.4,0.8,1.2,1.1,2.2,1.2c1.3,0,2.3-0.8,2.3-2.2c0.1-2.5-3.8-1.4-5.1-3.6c-0.3-0.4-0.3-0.9-0.3-1.3
				c0.1-1.8,1.7-2.5,3.3-2.5c1,0,2.2,0.4,2.8,1.2c-0.1-0.8-0.3-1.4-0.6-2c-0.4-0.7-1-1.2-2-1.4c-0.4-0.1-0.8-0.1-1.2-0.1
				c-0.4,0.1-0.9,0.2-1.3,0.5c-0.3,0.2-0.7,0.4-1,0.6c-0.3,0.2-0.6,0.4-0.9,0.5c-0.1,0.1-0.3,0.2-0.5,0.2c-0.1,0-0.1,0-0.2,0
				c0,0-0.1,0-0.1,0v0c-0.3-0.1-0.5-0.4-0.5-0.7c0-0.4,0.4-0.8,0.8-0.8c0.4,0,0.8,0.4,0.8,0.8v0.1c0.1-0.1,0.3-0.2,0.4-0.3
				c0.3-0.2,0.7-0.4,1-0.6c0.5-0.3,1-0.4,1.4-0.5s0.9-0.1,1.4,0.1c1,0.3,1.7,0.8,2.2,1.6c0.5,0.8,0.7,1.9,0.6,3h0c0,0,0,0,0,0.1
				l-0.7,0.5c-0.2-1.5-1.1-2.3-2.4-2.3c-1.3,0-2.3,0.8-2.4,2.2c0,0.5,0.2,0.9,0.4,1.2c1,1,3.7,0.6,4.8,2.4c0.2,0.4,0.3,0.9,0.3,1.3
				c-0.1,1.8-1.7,2.5-3.3,2.5c-1,0-2.3-0.3-2.8-1.3c-0.2-0.3-0.3-0.6-0.3-1l0.7-0.1l0.3,0C1073.1,50.9,1073.1,51.2,1073.2,51.5z"/>
			<path class="st2" d="M1083.7,52.5c-0.8,0.8-2.5,0.6-2.9-0.5c-0.3-0.6-0.3-1.7-0.3-3.2v-4.5h-0.5v-0.3h0.5v-0.8
				c0-0.6,0-1.1-0.5-1.2l0.5-0.4l0.9-0.7v3h1.5l-0.2,0.3h-1.4v4.5c0,1.1,0,2.1,0.1,2.9c0.1,0.5,0.3,0.9,0.8,1
				C1082.8,52.9,1083.2,52.8,1083.7,52.5z"/>
		</g>
	</g>
</g>
</svg>
