<?xml version="1.0" encoding="utf-8"?>
<!-- Generator: Adobe Illustrator 27.7.0, SVG Export Plug-In . SVG Version: 6.00 Build 0)  -->
<svg version="1.1" id="Livello_1" xmlns="http://www.w3.org/2000/svg" xmlns:xlink="http://www.w3.org/1999/xlink" x="0px" y="0px"
	 viewBox="0 0 85.5 11.1" style="enable-background:new 0 0 85.5 11.1;" xml:space="preserve">
<style type="text/css">
	.st0{enable-background:new    ;}
	.st1{fill:#BFBCBC;}
</style>
<g>
	<g class="st0">
		<path class="st1" d="M50,7.6c-0.1,1.1-0.5,2-1.2,2.6c-0.7,0.6-1.6,0.9-2.8,0.9c-1.3,0-2.3-0.5-3-1.4c-0.8-0.9-1.1-2.1-1.1-3.6v-1
			c0-1,0.2-1.9,0.5-2.6c0.4-0.8,0.9-1.3,1.5-1.7c0.6-0.4,1.4-0.6,2.3-0.6c1.1,0,2,0.3,2.7,0.9c0.7,0.6,1.1,1.5,1.2,2.6h-1.4
			c-0.1-0.9-0.4-1.5-0.8-1.9c-0.4-0.4-1-0.6-1.7-0.6c-0.9,0-1.6,0.3-2.1,1c-0.5,0.7-0.8,1.6-0.8,2.8v1c0,1.2,0.2,2.1,0.7,2.8
			c0.5,0.7,1.2,1,2,1c0.8,0,1.4-0.2,1.8-0.5c0.4-0.4,0.7-1,0.8-1.8H50z"/>
		<path class="st1" d="M53.3,9.8h5.1V11h-6.5V0.3h1.4V9.8z"/>
		<path class="st1" d="M67.7,6c0,1-0.2,2-0.5,2.7c-0.4,0.8-0.8,1.4-1.5,1.8s-1.4,0.6-2.3,0.6c-0.8,0-1.6-0.2-2.2-0.6
			c-0.6-0.4-1.2-1-1.5-1.8c-0.4-0.8-0.5-1.6-0.6-2.7V5.3c0-1,0.2-1.9,0.5-2.7c0.4-0.8,0.9-1.4,1.5-1.8c0.7-0.4,1.4-0.6,2.2-0.6
			c0.9,0,1.6,0.2,2.3,0.6c0.7,0.4,1.2,1,1.5,1.8c0.4,0.8,0.5,1.7,0.5,2.7V6z M66.3,5.3c0-1.3-0.3-2.2-0.8-2.9c-0.5-0.7-1.2-1-2.1-1
			c-0.9,0-1.6,0.3-2.1,1C60.8,3,60.6,4,60.5,5.2V6c0,1.2,0.3,2.2,0.8,2.9c0.5,0.7,1.2,1.1,2.1,1.1c0.9,0,1.6-0.3,2.1-1
			c0.5-0.7,0.8-1.6,0.8-2.8V5.3z"/>
		<path class="st1" d="M73,6.2c-1.2-0.3-2.1-0.8-2.6-1.3c-0.5-0.5-0.8-1.1-0.8-1.9c0-0.8,0.3-1.5,1-2.1c0.7-0.5,1.5-0.8,2.6-0.8
			c0.7,0,1.4,0.1,2,0.4c0.6,0.3,1,0.7,1.3,1.2c0.3,0.5,0.5,1,0.5,1.6h-1.4c0-0.6-0.2-1.2-0.6-1.5s-1-0.6-1.7-0.6
			c-0.7,0-1.2,0.2-1.6,0.5c-0.4,0.3-0.6,0.7-0.6,1.3c0,0.4,0.2,0.8,0.6,1.1s1,0.6,1.9,0.8c0.9,0.2,1.6,0.5,2.1,0.8
			c0.5,0.3,0.9,0.7,1.1,1.1c0.2,0.4,0.4,0.9,0.4,1.4c0,0.9-0.3,1.6-1,2.1c-0.7,0.5-1.6,0.8-2.7,0.8c-0.7,0-1.4-0.1-2.1-0.4
			c-0.6-0.3-1.1-0.7-1.5-1.2c-0.3-0.5-0.5-1-0.5-1.7h1.4c0,0.6,0.2,1.2,0.7,1.5c0.5,0.4,1.1,0.6,1.9,0.6c0.7,0,1.3-0.2,1.7-0.5
			s0.6-0.7,0.6-1.2S75.3,7.3,75,7.1C74.6,6.8,73.9,6.5,73,6.2z"/>
		<path class="st1" d="M84.8,6h-4.6v3.8h5.4V11h-6.8V0.3h6.7v1.2h-5.3v3.4h4.6V6z"/>
	</g>
	<g>
		<g id="Linea_7">
			<rect y="10" class="st1" width="37" height="1"/>
		</g>
		<g id="Linea_8">
			<rect class="st1" width="37" height="3"/>
		</g>
	</g>
</g>
</svg>
