<?xml version="1.0" encoding="utf-8"?>
<!-- Generator: Adobe Illustrator 27.7.0, SVG Export Plug-In . SVG Version: 6.00 Build 0)  -->
<svg version="1.1" id="Raggruppa_73" xmlns="http://www.w3.org/2000/svg" xmlns:xlink="http://www.w3.org/1999/xlink" x="0px"
	 y="0px" viewBox="0 0 22.5 4.5" style="enable-background:new 0 0 22.5 4.5;" xml:space="preserve">
<style type="text/css">
	.st0{enable-background:new    ;}
	.st1{fill:#FFFFFF;}
</style>
<g id="Raggruppa_72">
	<g id="Raggruppa_71">
		<g id="Raggruppa_70">
			<g id="Raggruppa_69">
				<g id="Raggruppa_68">
					<g id="Raggruppa_67">
						<g id="Raggruppa_66">
							<g id="Raggruppa_65">
								<g id="Raggruppa_64">
									<g id="Raggruppa_63">
										<g id="Raggruppa_62">
											<g id="Raggruppa_61">
												<g id="Raggruppa_60">
													<g id="Raggruppa_59">
														<g id="Raggruppa_58">
															<g id="Raggruppa_57">
																<g id="Raggruppa_56">
																	<g id="Raggruppa_55">
																		<g id="Raggruppa_54">
																			<g id="Raggruppa_53">
																				<g id="Raggruppa_52">
																					<g id="Raggruppa_51">
																						<g id="Raggruppa_50">
																							<g id="Raggruppa_49">
																								<g id="Raggruppa_48">
																									<g id="Raggruppa_47">
																										<g id="Raggruppa_46">
																											<g class="st0">
																												<path class="st1" d="M1.6,2.5C1.1,2.3,0.7,2.2,0.5,2C0.2,1.8,0.1,1.5,0.1,1.2s0.1-0.6,0.4-0.9
																													C0.8,0.1,1.2,0,1.6,0c0.3,0,0.6,0,0.8,0.2S2.9,0.4,3,0.7c0.1,0.2,0.2,0.4,0.2,0.7H2.6
																													c0-0.2-0.1-0.5-0.2-0.6C2.2,0.6,1.9,0.5,1.6,0.5S1.1,0.6,1,0.7C0.8,0.8,0.7,0.9,0.7,1.2
																													c0,0.2,0.1,0.3,0.2,0.4S1.4,1.9,1.8,2C2.1,2,2.4,2.2,2.6,2.3C2.8,2.4,3,2.6,3.1,2.7
																													c0.1,0.2,0.2,0.4,0.2,0.6c0,0.4-0.1,0.7-0.4,0.9C2.5,4.4,2.1,4.5,1.6,4.5c-0.3,0-0.6,0-0.9-0.2
																													C0.5,4.2,0.3,4,0.2,3.8C0.1,3.6,0,3.4,0,3.1h0.6c0,0.2,0.1,0.5,0.3,0.6C1.1,3.9,1.3,4,1.6,4
																													c0.3,0,0.5-0.1,0.7-0.2s0.2-0.3,0.2-0.5c0-0.2,0-0.4-0.2-0.5C2.2,2.7,2,2.6,1.6,2.5z"/>
																												<path class="st1" d="M6.4,2.4H4.5V4h2.2v0.5H3.9V0h2.7v0.5H4.5v1.4h1.9V2.4z"/>
																												<path class="st1" d="M9.8,3.3H8L7.6,4.4H6.9L8.6,0h0.5l1.7,4.4h-0.6L9.8,3.3z M8.1,2.8h1.5l-0.7-2
																													L8.1,2.8z"/>
																												<path class="st1" d="M13,2.7h-1v1.8h-0.6V0h1.4c0.5,0,0.9,0.1,1.1,0.3c0.2,0.2,0.4,0.5,0.4,1
																													c0,0.3-0.1,0.5-0.2,0.7c-0.2,0.2-0.4,0.4-0.6,0.4l1,1.8v0H14L13,2.7z M12,2.2h0.9
																													c0.3,0,0.5-0.1,0.7-0.2c0.2-0.2,0.2-0.3,0.2-0.6s-0.1-0.5-0.2-0.6c-0.2-0.2-0.4-0.2-0.7-0.2H12V2.2z"/>
																												<path class="st1" d="M18.4,3c0,0.4-0.2,0.8-0.5,1.1s-0.7,0.4-1.1,0.4c-0.5,0-0.9-0.2-1.2-0.6
																													C15.2,3.6,15,3.1,15,2.5V2c0-0.4,0.1-0.8,0.2-1.1c0.2-0.3,0.4-0.5,0.6-0.7C16.1,0.1,16.4,0,16.8,0
																													c0.4,0,0.8,0.1,1.1,0.4s0.4,0.6,0.5,1.1h-0.6c0-0.4-0.2-0.6-0.3-0.8S17,0.4,16.8,0.4
																													c-0.4,0-0.7,0.1-0.9,0.4S15.6,1.5,15.6,2v0.4c0,0.5,0.1,0.9,0.3,1.1c0.2,0.3,0.5,0.4,0.8,0.4
																													c0.3,0,0.6-0.1,0.7-0.2c0.2-0.2,0.3-0.4,0.3-0.7L18.4,3L18.4,3z"/>
																												<path class="st1" d="M22.5,4.4H22v-2h-2.2v2h-0.6V0h0.6v1.9H22V0h0.6V4.4z"/>
																											</g>
																										</g>
																									</g>
																								</g>
																							</g>
																						</g>
																					</g>
																				</g>
																			</g>
																		</g>
																	</g>
																</g>
															</g>
														</g>
													</g>
												</g>
											</g>
										</g>
									</g>
								</g>
							</g>
						</g>
					</g>
				</g>
			</g>
		</g>
	</g>
</g>
</svg>
