<?xml version="1.0" encoding="utf-8"?>
<!-- Generator: Adobe Illustrator 27.7.0, SVG Export Plug-In . SVG Version: 6.00 Build 0)  -->
<svg version="1.1" id="Livello_1" xmlns="http://www.w3.org/2000/svg" xmlns:xlink="http://www.w3.org/1999/xlink" x="0px" y="0px"
	 viewBox="0 0 22.5 4.5" style="enable-background:new 0 0 22.5 4.5;" xml:space="preserve">
<style type="text/css">
	.st0{enable-background:new    ;}
	.st1{fill:#BFBCBC;}
</style>
<g class="st0">
	<path class="st1" d="M4.2,3C4.2,3.5,4,3.8,3.6,4.1C3.2,4.4,2.7,4.5,2.2,4.5C1.5,4.5,1,4.3,0.6,3.9C0.2,3.6,0,3.1,0,2.5V2
		C0,1.6,0.1,1.3,0.3,1C0.5,0.7,0.7,0.4,1,0.2C1.4,0.1,1.7,0,2.2,0c0.6,0,1,0.1,1.4,0.4S4.2,1,4.2,1.4H3.5C3.4,1.1,3.3,0.9,3.1,0.7
		C2.9,0.5,2.6,0.5,2.2,0.5c-0.5,0-0.8,0.1-1.1,0.4C0.9,1.1,0.7,1.6,0.7,2v0.4c0,0.5,0.1,0.9,0.4,1.1S1.7,4,2.1,4S2.8,3.9,3,3.8
		c0.2-0.2,0.4-0.4,0.4-0.7L4.2,3L4.2,3z"/>
	<path class="st1" d="M5.9,4h2.6v0.5H5.2V0h0.7V4z"/>
	<path class="st1" d="M13.3,2.4c0,0.4-0.1,0.8-0.3,1.1c-0.2,0.3-0.4,0.6-0.8,0.7c-0.4,0.2-0.7,0.3-1.1,0.3S10.3,4.4,10,4.3
		C9.7,4.1,9.4,3.8,9.3,3.5C9.1,3.2,9,2.9,8.9,2.4V2.1c0-0.4,0.1-0.8,0.3-1.1S9.7,0.4,10,0.2C10.3,0.1,10.7,0,11.1,0
		c0.5,0,0.8,0.1,1.2,0.2c0.4,0.2,0.6,0.4,0.8,0.7c0.2,0.3,0.3,0.7,0.3,1.1V2.4z M12.6,2.1c0-0.5-0.2-0.9-0.4-1.2
		c-0.3-0.3-0.6-0.4-1.1-0.4c-0.5,0-0.8,0.1-1.1,0.4S9.7,1.6,9.7,2v0.3c0,0.5,0.1,0.9,0.4,1.2S10.6,4,11.1,4c0.5,0,0.8-0.1,1.1-0.4
		c0.3-0.3,0.4-0.7,0.4-1.1V2.1z"/>
	<path class="st1" d="M16,2.5C15.4,2.4,15,2.2,14.7,2s-0.4-0.4-0.4-0.8s0.2-0.6,0.5-0.9C15.1,0.1,15.6,0,16.1,0c0.4,0,0.7,0,1,0.2
		s0.5,0.3,0.7,0.5c0.2,0.2,0.3,0.4,0.3,0.7h-0.7c0-0.2-0.1-0.5-0.3-0.6c-0.2-0.1-0.5-0.2-0.9-0.2c-0.4,0-0.6,0.1-0.8,0.2
		S15,0.9,15,1.2c0,0.2,0.1,0.3,0.3,0.4s0.5,0.2,1,0.3c0.5,0.1,0.8,0.2,1.1,0.3c0.3,0.1,0.5,0.3,0.6,0.4c0.1,0.2,0.2,0.4,0.2,0.6
		c0,0.4-0.2,0.7-0.5,0.9c-0.4,0.2-0.8,0.3-1.4,0.3c-0.4,0-0.7,0-1.1-0.2c-0.3-0.1-0.6-0.3-0.8-0.5c-0.2-0.2-0.3-0.4-0.3-0.7h0.7
		c0,0.2,0.1,0.5,0.4,0.6c0.3,0.2,0.6,0.2,1,0.2c0.4,0,0.7-0.1,0.9-0.2c0.2-0.1,0.3-0.3,0.3-0.5c0-0.2-0.1-0.4-0.3-0.5
		C16.9,2.7,16.5,2.6,16,2.5z"/>
	<path class="st1" d="M22.1,2.4h-2.4V4h2.8v0.5H19V0h3.4v0.5h-2.7v1.4h2.4V2.4z"/>
</g>
</svg>
