<?xml version="1.0" encoding="utf-8"?>
<!-- Generator: Adobe Illustrator 27.8.0, SVG Export Plug-In . SVG Version: 6.00 Build 0)  -->
<svg version="1.1" id="Livello_1" xmlns="http://www.w3.org/2000/svg" xmlns:xlink="http://www.w3.org/1999/xlink" x="0px" y="0px"
	 viewBox="0 0 410 157" style="enable-background:new 0 0 410 157;" xml:space="preserve">
<style type="text/css">
	.st0{opacity:0.66;enable-background:new    ;}
	.st1{fill:#030303;}
	.st2{enable-background:new    ;}
	.st3{fill:#F5F5F5;}
</style>
<g id="Rettangolo_29" class="st0">
	<rect class="st1" width="410" height="157"/>
</g>
<g class="st2">
	<path class="st3" d="M158.9,79.1h-8.3v8.3h-1.5V69.6h11v1.3h-9.5v6.9h8.3V79.1z"/>
	<path class="st3" d="M170.7,82.4h-8.1l-1.8,5h-1.6l6.7-17.8h1.4l6.7,17.8h-1.6L170.7,82.4z M163.1,81.1h7.1l-3.6-9.7L163.1,81.1z"
		/>
	<path class="st3" d="M189.2,81.8c-0.2,1.9-0.9,3.3-2,4.3c-1.1,1-2.6,1.5-4.5,1.5c-1.3,0-2.5-0.3-3.5-1c-1-0.7-1.8-1.6-2.3-2.8
		c-0.6-1.2-0.8-2.6-0.8-4.1v-2.3c0-1.6,0.3-3,0.8-4.2c0.6-1.2,1.3-2.2,2.4-2.8c1-0.7,2.2-1,3.6-1c1.9,0,3.4,0.5,4.5,1.5
		c1.1,1,1.7,2.4,1.9,4.3h-1.5c-0.4-3-2-4.5-4.9-4.5c-1.6,0-2.9,0.6-3.9,1.8c-1,1.2-1.4,2.9-1.4,5v2.2c0,2.1,0.5,3.7,1.4,4.9
		c0.9,1.2,2.2,1.8,3.8,1.8c1.6,0,2.8-0.4,3.6-1.1c0.8-0.8,1.3-1.9,1.5-3.4H189.2z"/>
	<path class="st3" d="M202.7,78.9h-8.3v7.3h9.6v1.3h-11.1V69.6h11v1.3h-9.5v6.7h8.3V78.9z"/>
	<path class="st3" d="M208.6,86.1h8.8v1.3h-10.3V69.6h1.5V86.1z"/>
	<path class="st3" d="M230.1,78.9h-8.3v7.3h9.6v1.3h-11.1V69.6h11v1.3h-9.5v6.7h8.3V78.9z"/>
	<path class="st3" d="M244.5,83c0-1-0.3-1.8-1-2.3c-0.7-0.6-2-1.1-3.8-1.6c-1.8-0.5-3.2-1.1-4-1.7c-1.2-0.9-1.8-2-1.8-3.4
		c0-1.4,0.6-2.5,1.7-3.3c1.1-0.8,2.5-1.3,4.3-1.3c1.2,0,2.2,0.2,3.2,0.7c0.9,0.5,1.7,1.1,2.2,1.9s0.8,1.7,0.8,2.7h-1.5
		c0-1.2-0.4-2.2-1.2-2.9c-0.8-0.7-1.9-1.1-3.3-1.1c-1.4,0-2.4,0.3-3.2,0.9s-1.2,1.4-1.2,2.4c0,0.9,0.4,1.6,1.1,2.2
		c0.7,0.6,1.9,1.1,3.5,1.5c1.6,0.4,2.8,0.9,3.6,1.4c0.8,0.5,1.4,1,1.9,1.7c0.4,0.7,0.6,1.4,0.6,2.3c0,1.4-0.6,2.5-1.7,3.4
		c-1.1,0.8-2.6,1.3-4.4,1.3c-1.3,0-2.4-0.2-3.4-0.7c-1-0.4-1.8-1.1-2.4-1.9c-0.5-0.8-0.8-1.7-0.8-2.8h1.5c0,1.3,0.5,2.2,1.4,3
		c0.9,0.7,2.2,1.1,3.7,1.1c1.4,0,2.5-0.3,3.3-0.9C244.1,84.8,244.5,84,244.5,83z"/>
	<path class="st3" d="M259.3,83c0-1-0.3-1.8-1-2.3c-0.7-0.6-2-1.1-3.8-1.6c-1.8-0.5-3.2-1.1-4-1.7c-1.2-0.9-1.8-2-1.8-3.4
		c0-1.4,0.6-2.5,1.7-3.3c1.1-0.8,2.5-1.3,4.3-1.3c1.2,0,2.2,0.2,3.2,0.7c0.9,0.5,1.7,1.1,2.2,1.9s0.8,1.7,0.8,2.7h-1.5
		c0-1.2-0.4-2.2-1.2-2.9c-0.8-0.7-1.9-1.1-3.3-1.1c-1.4,0-2.4,0.3-3.2,0.9s-1.2,1.4-1.2,2.4c0,0.9,0.4,1.6,1.1,2.2
		c0.7,0.6,1.9,1.1,3.5,1.5c1.6,0.4,2.8,0.9,3.6,1.4c0.8,0.5,1.4,1,1.9,1.7c0.4,0.7,0.6,1.4,0.6,2.3c0,1.4-0.6,2.5-1.7,3.4
		c-1.1,0.8-2.6,1.3-4.4,1.3c-1.3,0-2.4-0.2-3.4-0.7c-1-0.4-1.8-1.1-2.4-1.9c-0.5-0.8-0.8-1.7-0.8-2.8h1.5c0,1.3,0.5,2.2,1.4,3
		c0.9,0.7,2.2,1.1,3.7,1.1c1.4,0,2.5-0.3,3.3-0.9C258.9,84.8,259.3,84,259.3,83z"/>
</g>
</svg>
