<?xml version="1.0" encoding="utf-8"?>
<!-- Generator: Adobe Illustrator 27.7.0, SVG Export Plug-In . SVG Version: 6.00 Build 0)  -->
<svg version="1.1" id="Livello_1" xmlns="http://www.w3.org/2000/svg" xmlns:xlink="http://www.w3.org/1999/xlink" x="0px" y="0px"
	 viewBox="0 0 410 157" style="enable-background:new 0 0 410 157;" xml:space="preserve">
<style type="text/css">
	.st0{opacity:0.66;enable-background:new    ;}
	.st1{fill:#030303;}
	.st2{enable-background:new    ;}
	.st3{fill:#F5F5F5;}
</style>
<g id="Raggruppa_75" transform="translate(-155 -190)">
	<g id="Raggruppa_74">
		<g id="Raggruppa_28" transform="translate(-721 -1574)">
			<g id="Rettangolo_29" class="st0">
				<rect x="876" y="1764" class="st1" width="410" height="157"/>
			</g>
			<g class="st2">
				<path class="st3" d="M1027.4,1850.1h8.8v1.3h-10.3v-17.8h1.5V1850.1z"/>
				<path class="st3" d="M1048.9,1846.4h-8.1l-1.8,5h-1.6l6.7-17.8h1.4l6.7,17.8h-1.6L1048.9,1846.4z M1041.3,1845.1h7.1l-3.6-9.7
					L1041.3,1845.1z"/>
				<path class="st3" d="M1059.2,1849.2l0.1,0.4l0.1-0.4l5.6-15.6h1.6l-6.6,17.8h-1.4l-6.6-17.8h1.6L1059.2,1849.2z"/>
				<path class="st3" d="M1082.3,1843.5c0,1.6-0.3,3.1-0.8,4.3c-0.6,1.2-1.4,2.2-2.4,2.9s-2.3,1-3.6,1c-2.1,0-3.8-0.7-5-2.2
					c-1.3-1.5-1.9-3.5-1.9-6v-1.8c0-1.6,0.3-3.1,0.9-4.3c0.6-1.2,1.4-2.2,2.4-2.9c1-0.7,2.3-1,3.6-1s2.6,0.3,3.6,1
					c1,0.7,1.9,1.6,2.4,2.8c0.6,1.2,0.9,2.6,0.9,4.2V1843.5z M1080.8,1841.5c0-2.1-0.5-3.8-1.5-5c-1-1.2-2.3-1.8-4-1.8
					c-1.7,0-3,0.6-3.9,1.8c-1,1.2-1.5,2.9-1.5,5.1v1.9c0,2.1,0.5,3.8,1.5,5c1,1.2,2.3,1.8,4,1.8c1.7,0,3-0.6,4-1.8s1.4-2.9,1.4-5.1
					V1841.5z"/>
				<path class="st3" d="M1092.7,1844h-5.2v7.4h-1.5v-17.8h5.8c1.9,0,3.4,0.5,4.4,1.4c1.1,0.9,1.6,2.2,1.6,3.9c0,1.1-0.3,2.1-1,3
					c-0.7,0.9-1.6,1.5-2.7,1.8l4.4,7.6v0.2h-1.6L1092.7,1844z M1087.5,1842.7h4.6c1.3,0,2.3-0.4,3-1.1c0.8-0.7,1.1-1.6,1.1-2.8
					c0-1.3-0.4-2.2-1.2-2.9c-0.8-0.7-1.9-1-3.4-1h-4.2V1842.7z"/>
				<path class="st3" d="M1115.1,1843.5c0,1.6-0.3,3.1-0.8,4.3c-0.6,1.2-1.4,2.2-2.4,2.9s-2.3,1-3.6,1c-2.1,0-3.8-0.7-5-2.2
					c-1.3-1.5-1.9-3.5-1.9-6v-1.8c0-1.6,0.3-3.1,0.9-4.3c0.6-1.2,1.4-2.2,2.4-2.9c1-0.7,2.3-1,3.6-1s2.6,0.3,3.6,1
					c1,0.7,1.9,1.6,2.4,2.8c0.6,1.2,0.9,2.6,0.9,4.2V1843.5z M1113.6,1841.5c0-2.1-0.5-3.8-1.5-5c-1-1.2-2.3-1.8-4-1.8
					c-1.7,0-3,0.6-3.9,1.8c-1,1.2-1.5,2.9-1.5,5.1v1.9c0,2.1,0.5,3.8,1.5,5c1,1.2,2.3,1.8,4,1.8c1.7,0,3-0.6,4-1.8s1.4-2.9,1.4-5.1
					V1841.5z"/>
				<path class="st3" d="M1133.3,1845.7h2.8v1.2h-2.8v4.5h-1.5v-4.5h-8.4v-0.8l8.2-12.5h1.6V1845.7z M1125.3,1845.7h6.6v-10.2
					l-0.6,1.1L1125.3,1845.7z"/>
			</g>
		</g>
	</g>
</g>
</svg>
