<?xml version="1.0" encoding="utf-8"?>
<!-- Generator: Adobe Illustrator 27.7.0, SVG Export Plug-In . SVG Version: 6.00 Build 0)  -->
<svg version="1.1" id="Livello_1" xmlns="http://www.w3.org/2000/svg" xmlns:xlink="http://www.w3.org/1999/xlink" x="0px" y="0px"
	 viewBox="0 0 410 157" style="enable-background:new 0 0 410 157;" xml:space="preserve">
<style type="text/css">
	.st0{opacity:0.66;enable-background:new    ;}
	.st1{fill:#030303;}
	.st2{enable-background:new    ;}
	.st3{fill:#F5F5F5;}
</style>
<g id="Raggruppa_74" transform="translate(-736 -174)">
	<g id="Raggruppa_28" transform="translate(-140 -1590)">
		<g id="Rettangolo_29" class="st0">
			<rect x="876" y="1764" class="st1" width="410" height="157"/>
		</g>
		<g class="st2">
			<path class="st3" d="M931.7,1850.1h8.8v1.3h-10.3v-17.8h1.5V1850.1z"/>
			<path class="st3" d="M955.7,1843.5c0,1.6-0.3,3.1-0.8,4.3s-1.4,2.2-2.4,2.9s-2.3,1-3.6,1c-2.1,0-3.8-0.7-5-2.2
				c-1.3-1.5-1.9-3.5-1.9-6v-1.8c0-1.6,0.3-3.1,0.9-4.3c0.6-1.2,1.4-2.2,2.4-2.9c1-0.7,2.3-1,3.6-1s2.6,0.3,3.6,1
				c1,0.7,1.9,1.6,2.4,2.8s0.9,2.6,0.9,4.2V1843.5z M954.2,1841.5c0-2.1-0.5-3.8-1.5-5c-1-1.2-2.3-1.8-4-1.8c-1.7,0-3,0.6-3.9,1.8
				s-1.5,2.9-1.5,5.1v1.9c0,2.1,0.5,3.8,1.5,5c1,1.2,2.3,1.8,4,1.8c1.7,0,3-0.6,4-1.8s1.4-2.9,1.4-5.1V1841.5z"/>
			<path class="st3" d="M972.6,1843.5c0,1.6-0.3,3.1-0.8,4.3s-1.4,2.2-2.4,2.9s-2.3,1-3.6,1c-2.1,0-3.8-0.7-5-2.2
				c-1.3-1.5-1.9-3.5-1.9-6v-1.8c0-1.6,0.3-3.1,0.9-4.3c0.6-1.2,1.4-2.2,2.4-2.9c1-0.7,2.3-1,3.6-1s2.6,0.3,3.6,1
				c1,0.7,1.9,1.6,2.4,2.8s0.9,2.6,0.9,4.2V1843.5z M971.1,1841.5c0-2.1-0.5-3.8-1.5-5c-1-1.2-2.3-1.8-4-1.8c-1.7,0-3,0.6-3.9,1.8
				s-1.5,2.9-1.5,5.1v1.9c0,2.1,0.5,3.8,1.5,5c1,1.2,2.3,1.8,4,1.8c1.7,0,3-0.6,4-1.8s1.4-2.9,1.4-5.1V1841.5z"/>
			<path class="st3" d="M980.4,1842.6l-2.5,2.5v6.4h-1.5v-17.8h1.5v9.6l9.1-9.6h1.9l-7.4,7.9l8,9.9h-1.8L980.4,1842.6z"/>
			<path class="st3" d="M992.1,1851.4v-17.8h5.2c1.9,0,3.3,0.4,4.3,1.2s1.5,1.9,1.5,3.5c0,0.9-0.2,1.7-0.8,2.4
				c-0.5,0.7-1.2,1.2-2.1,1.5c1,0.2,1.9,0.7,2.5,1.5c0.6,0.8,0.9,1.7,0.9,2.7c0,1.6-0.5,2.8-1.5,3.7c-1,0.9-2.4,1.3-4.2,1.3H992.1z
				 M993.6,1841.6h4.1c1.3,0,2.2-0.3,2.9-0.9c0.7-0.6,1-1.4,1-2.5c0-1.1-0.4-2-1.1-2.5s-1.8-0.8-3.2-0.8h-3.7V1841.6z M993.6,1842.9
				v7.3h4.5c1.3,0,2.3-0.3,3.1-1c0.8-0.7,1.1-1.6,1.1-2.7c0-1.1-0.4-2-1.1-2.6c-0.7-0.6-1.7-1-3-1H993.6z"/>
			<path class="st3" d="M1020.6,1843.5c0,1.6-0.3,3.1-0.8,4.3c-0.6,1.2-1.4,2.2-2.4,2.9s-2.3,1-3.6,1c-2.1,0-3.8-0.7-5-2.2
				s-1.9-3.5-1.9-6v-1.8c0-1.6,0.3-3.1,0.9-4.3c0.6-1.2,1.4-2.2,2.4-2.9c1-0.7,2.3-1,3.6-1s2.6,0.3,3.6,1c1,0.7,1.9,1.6,2.4,2.8
				c0.6,1.2,0.9,2.6,0.9,4.2V1843.5z M1019.1,1841.5c0-2.1-0.5-3.8-1.5-5c-1-1.2-2.3-1.8-4-1.8c-1.7,0-3,0.6-3.9,1.8
				c-1,1.2-1.5,2.9-1.5,5.1v1.9c0,2.1,0.5,3.8,1.5,5c1,1.2,2.3,1.8,4,1.8c1.7,0,3-0.6,4-1.8s1.4-2.9,1.4-5.1V1841.5z"/>
			<path class="st3" d="M1037.5,1843.5c0,1.6-0.3,3.1-0.8,4.3c-0.6,1.2-1.4,2.2-2.4,2.9s-2.3,1-3.6,1c-2.1,0-3.8-0.7-5-2.2
				s-1.9-3.5-1.9-6v-1.8c0-1.6,0.3-3.1,0.9-4.3c0.6-1.2,1.4-2.2,2.4-2.9c1-0.7,2.3-1,3.6-1s2.6,0.3,3.6,1c1,0.7,1.9,1.6,2.4,2.8
				c0.6,1.2,0.9,2.6,0.9,4.2V1843.5z M1036,1841.5c0-2.1-0.5-3.8-1.5-5c-1-1.2-2.3-1.8-4-1.8c-1.7,0-3,0.6-3.9,1.8
				c-1,1.2-1.5,2.9-1.5,5.1v1.9c0,2.1,0.5,3.8,1.5,5c1,1.2,2.3,1.8,4,1.8c1.7,0,3-0.6,4-1.8s1.4-2.9,1.4-5.1V1841.5z"/>
			<path class="st3" d="M1045.3,1842.6l-2.5,2.5v6.4h-1.5v-17.8h1.5v9.6l9.1-9.6h1.9l-7.4,7.9l8,9.9h-1.8L1045.3,1842.6z"/>
			<path class="st3" d="M1064.6,1844.1v7.2h-1.5v-17.8h6.1c1.8,0,3.3,0.5,4.4,1.4c1.1,0.9,1.6,2.2,1.6,3.9c0,1.7-0.5,3-1.5,3.9
				s-2.5,1.4-4.5,1.4H1064.6z M1064.6,1842.9h4.6c1.5,0,2.6-0.3,3.3-1c0.8-0.7,1.1-1.7,1.1-2.9c0-1.2-0.4-2.2-1.1-2.9
				s-1.8-1.1-3.2-1.1h-4.7V1842.9z"/>
			<path class="st3" d="M1086.5,1846.4h-8.1l-1.8,5h-1.6l6.7-17.8h1.4l6.7,17.8h-1.6L1086.5,1846.4z M1078.8,1845.1h7.1l-3.6-9.7
				L1078.8,1845.1z"/>
			<path class="st3" d="M1105.5,1843.5c0,1.6-0.3,3.1-0.8,4.3s-1.4,2.2-2.4,2.9s-2.3,1-3.6,1c-2.1,0-3.8-0.7-5-2.2
				c-1.3-1.5-1.9-3.5-1.9-6v-1.8c0-1.6,0.3-3.1,0.9-4.3c0.6-1.2,1.4-2.2,2.4-2.9c1-0.7,2.3-1,3.6-1s2.6,0.3,3.6,1
				c1,0.7,1.9,1.6,2.4,2.8s0.9,2.6,0.9,4.2V1843.5z M1104,1841.5c0-2.1-0.5-3.8-1.5-5c-1-1.2-2.3-1.8-4-1.8c-1.7,0-3,0.6-3.9,1.8
				s-1.5,2.9-1.5,5.1v1.9c0,2.1,0.5,3.8,1.5,5c1,1.2,2.3,1.8,4,1.8c1.7,0,3-0.6,4-1.8s1.4-2.9,1.4-5.1V1841.5z"/>
			<path class="st3" d="M1110.8,1850.1h8.8v1.3h-10.3v-17.8h1.5V1850.1z"/>
			<path class="st3" d="M1134.8,1843.5c0,1.6-0.3,3.1-0.8,4.3s-1.4,2.2-2.4,2.9s-2.3,1-3.6,1c-2.1,0-3.8-0.7-5-2.2
				c-1.3-1.5-1.9-3.5-1.9-6v-1.8c0-1.6,0.3-3.1,0.9-4.3c0.6-1.2,1.4-2.2,2.4-2.9c1-0.7,2.3-1,3.6-1s2.6,0.3,3.6,1
				c1,0.7,1.9,1.6,2.4,2.8s0.9,2.6,0.9,4.2V1843.5z M1133.3,1841.5c0-2.1-0.5-3.8-1.5-5c-1-1.2-2.3-1.8-4-1.8c-1.7,0-3,0.6-3.9,1.8
				s-1.5,2.9-1.5,5.1v1.9c0,2.1,0.5,3.8,1.5,5c1,1.2,2.3,1.8,4,1.8c1.7,0,3-0.6,4-1.8s1.4-2.9,1.4-5.1V1841.5z"/>
			<path class="st3" d="M1154.4,1843.1h-8.3v8.3h-1.5v-17.8h11v1.3h-9.5v6.9h8.3V1843.1z"/>
			<path class="st3" d="M1165.3,1844h-5.2v7.4h-1.5v-17.8h5.8c1.9,0,3.4,0.5,4.4,1.4c1.1,0.9,1.6,2.2,1.6,3.9c0,1.1-0.3,2.1-1,3
				s-1.6,1.5-2.7,1.8l4.4,7.6v0.2h-1.6L1165.3,1844z M1160.2,1842.7h4.6c1.3,0,2.3-0.4,3-1.1c0.8-0.7,1.1-1.6,1.1-2.8
				c0-1.3-0.4-2.2-1.2-2.9c-0.8-0.7-1.9-1-3.4-1h-4.2V1842.7z"/>
			<path class="st3" d="M1184.4,1842.9h-8.3v7.3h9.6v1.3h-11.1v-17.8h11v1.3h-9.5v6.7h8.3V1842.9z"/>
			<path class="st3" d="M1189.5,1850.1h11v1.3h-12.8v-1.1l10.5-15.4H1188v-1.3h12.1v1.1L1189.5,1850.1z"/>
			<path class="st3" d="M1204.4,1850.1h11v1.3h-12.8v-1.1l10.5-15.4h-10.2v-1.3h12.1v1.1L1204.4,1850.1z"/>
			<path class="st3" d="M1228.4,1846.4h-8.1l-1.8,5h-1.6l6.7-17.8h1.4l6.7,17.8h-1.6L1228.4,1846.4z M1220.8,1845.1h7.1l-3.6-9.7
				L1220.8,1845.1z"/>
		</g>
	</g>
</g>
</svg>
