<?xml version="1.0" encoding="utf-8"?>
<!-- Generator: Adobe Illustrator 27.7.0, SVG Export Plug-In . SVG Version: 6.00 Build 0)  -->
<svg version="1.1" id="Livello_1" xmlns="http://www.w3.org/2000/svg" xmlns:xlink="http://www.w3.org/1999/xlink" x="0px" y="0px"
	 viewBox="0 0 410 157" style="enable-background:new 0 0 410 157;" xml:space="preserve">
<style type="text/css">
	.st0{opacity:0.66;enable-background:new    ;}
	.st1{fill:#030303;}
	.st2{enable-background:new    ;}
	.st3{fill:#F5F5F5;}
</style>
<g id="Raggruppa_74" transform="translate(-736 -174)">
	<g id="Raggruppa_28" transform="translate(-140 -1590)">
		<g id="Rettangolo_29" class="st0">
			<rect x="876" y="1764" class="st1" width="410" height="157"/>
		</g>
		<g class="st2">
			<path class="st3" d="M1020.1,1847c0-1-0.3-1.8-1-2.3c-0.7-0.6-2-1.1-3.8-1.6c-1.8-0.5-3.2-1.1-4-1.7c-1.2-0.9-1.8-2-1.8-3.4
				c0-1.4,0.6-2.5,1.7-3.3c1.1-0.8,2.5-1.3,4.3-1.3c1.2,0,2.2,0.2,3.2,0.7s1.7,1.1,2.2,1.9s0.8,1.7,0.8,2.7h-1.5
				c0-1.2-0.4-2.2-1.2-2.9c-0.8-0.7-1.9-1.1-3.3-1.1c-1.4,0-2.4,0.3-3.2,0.9s-1.2,1.4-1.2,2.4c0,0.9,0.4,1.6,1.1,2.2
				s1.9,1.1,3.5,1.5c1.6,0.4,2.8,0.9,3.6,1.4s1.4,1,1.9,1.7c0.4,0.7,0.6,1.4,0.6,2.3c0,1.4-0.6,2.5-1.7,3.4s-2.6,1.3-4.4,1.3
				c-1.3,0-2.4-0.2-3.4-0.7c-1-0.4-1.8-1.1-2.4-1.9c-0.5-0.8-0.8-1.7-0.8-2.8h1.5c0,1.3,0.5,2.2,1.4,3c0.9,0.7,2.2,1.1,3.7,1.1
				c1.4,0,2.5-0.3,3.3-0.9C1019.7,1848.8,1020.1,1848,1020.1,1847z"/>
			<path class="st3" d="M1037.1,1833.6v12.1c0,1.2-0.3,2.2-0.8,3.1s-1.3,1.6-2.2,2c-0.9,0.5-2,0.7-3.3,0.7c-1.9,0-3.4-0.5-4.5-1.5
				c-1.1-1-1.7-2.4-1.8-4.2v-12.2h1.5v12c0,1.5,0.4,2.7,1.3,3.5c0.9,0.8,2,1.2,3.5,1.2s2.6-0.4,3.5-1.2c0.9-0.8,1.3-2,1.3-3.5v-12
				H1037.1z"/>
			<path class="st3" d="M1041.3,1851.4v-17.8h5.2c1.9,0,3.3,0.4,4.3,1.2c1,0.8,1.5,1.9,1.5,3.5c0,0.9-0.2,1.7-0.8,2.4
				c-0.5,0.7-1.2,1.2-2.1,1.5c1,0.2,1.9,0.7,2.5,1.5c0.6,0.8,0.9,1.7,0.9,2.7c0,1.6-0.5,2.8-1.5,3.7c-1,0.9-2.4,1.3-4.2,1.3H1041.3z
				 M1042.8,1841.6h4.1c1.3,0,2.2-0.3,2.9-0.9c0.7-0.6,1-1.4,1-2.5c0-1.1-0.4-2-1.1-2.5c-0.7-0.5-1.8-0.8-3.2-0.8h-3.7V1841.6z
				 M1042.8,1842.9v7.3h4.5c1.3,0,2.3-0.3,3.1-1c0.8-0.7,1.1-1.6,1.1-2.7c0-1.1-0.4-2-1.1-2.6c-0.7-0.6-1.7-1-3-1H1042.8z"/>
			<path class="st3" d="M1066.6,1847c0-1-0.3-1.8-1-2.3c-0.7-0.6-2-1.1-3.8-1.6c-1.8-0.5-3.2-1.1-4-1.7c-1.2-0.9-1.8-2-1.8-3.4
				c0-1.4,0.6-2.5,1.7-3.3c1.1-0.8,2.5-1.3,4.3-1.3c1.2,0,2.2,0.2,3.2,0.7s1.7,1.1,2.2,1.9s0.8,1.7,0.8,2.7h-1.5
				c0-1.2-0.4-2.2-1.2-2.9c-0.8-0.7-1.9-1.1-3.3-1.1c-1.4,0-2.4,0.3-3.2,0.9s-1.2,1.4-1.2,2.4c0,0.9,0.4,1.6,1.1,2.2
				s1.9,1.1,3.5,1.5c1.6,0.4,2.8,0.9,3.6,1.4s1.4,1,1.9,1.7c0.4,0.7,0.6,1.4,0.6,2.3c0,1.4-0.6,2.5-1.7,3.4s-2.6,1.3-4.4,1.3
				c-1.3,0-2.4-0.2-3.4-0.7c-1-0.4-1.8-1.1-2.4-1.9c-0.5-0.8-0.8-1.7-0.8-2.8h1.5c0,1.3,0.5,2.2,1.4,3c0.9,0.7,2.2,1.1,3.7,1.1
				c1.4,0,2.5-0.3,3.3-0.9C1066.2,1848.8,1066.6,1848,1066.6,1847z"/>
			<path class="st3" d="M1083.4,1834.9h-6.1v16.5h-1.5v-16.5h-6.1v-1.3h13.7V1834.9z"/>
			<path class="st3" d="M1094.9,1846.4h-8.1l-1.8,5h-1.6l6.7-17.8h1.4l6.7,17.8h-1.6L1094.9,1846.4z M1087.3,1845.1h7.1l-3.6-9.7
				L1087.3,1845.1z"/>
			<path class="st3" d="M1114.2,1851.4h-1.5l-10.2-15.2v15.2h-1.5v-17.8h1.5l10.2,15.2v-15.2h1.5V1851.4z"/>
			<path class="st3" d="M1130.4,1834.9h-6.1v16.5h-1.5v-16.5h-6.1v-1.3h13.7V1834.9z"/>
			<path class="st3" d="M1135.1,1851.4h-1.5v-17.8h1.5V1851.4z"/>
			<path class="st3" d="M1149.7,1846.4h-8.1l-1.8,5h-1.6l6.7-17.8h1.4l6.7,17.8h-1.6L1149.7,1846.4z M1142.1,1845.1h7.1l-3.6-9.7
				L1142.1,1845.1z"/>
		</g>
	</g>
</g>
</svg>
