<?xml version="1.0" encoding="utf-8"?>
<!-- Generator: Adobe Illustrator 27.7.0, SVG Export Plug-In . SVG Version: 6.00 Build 0)  -->
<svg version="1.1" id="Livello_1" xmlns="http://www.w3.org/2000/svg" xmlns:xlink="http://www.w3.org/1999/xlink" x="0px" y="0px"
	 viewBox="0 0 410 157" style="enable-background:new 0 0 410 157;" xml:space="preserve">
<style type="text/css">
	.st0{opacity:0.66;enable-background:new    ;}
	.st1{fill:#030303;}
	.st2{enable-background:new    ;}
	.st3{fill:#F5F5F5;}
</style>
<g id="Raggruppa_74" transform="translate(-736 -174)">
	<g id="Raggruppa_28" transform="translate(-140 -1590)">
		<g id="Rettangolo_29" class="st0">
			<rect x="876" y="1764" class="st1" width="410" height="157"/>
		</g>
		<g class="st2">
			<path class="st3" d="M940.5,1849.2l0.1,0.4l0.1-0.4l5.6-15.6h1.6l-6.6,17.8h-1.4l-6.6-17.8h1.6L940.5,1849.2z"/>
			<path class="st3" d="M952.4,1851.4h-1.5v-17.8h1.5V1851.4z"/>
			<path class="st3" d="M967,1842.9h-8.3v7.3h9.6v1.3h-11.1v-17.8h11v1.3h-9.5v6.7h8.3V1842.9z"/>
			<path class="st3" d="M974.7,1846.6l0.5,2.8l0.7-2.6l3.9-13.1h1.4l3.8,13.1l0.7,2.7l0.6-2.8l3.2-13h1.5l-4.6,17.8h-1.4l-4-13.9
				l-0.5-1.8l-0.4,1.8l-4.1,13.9h-1.4l-4.5-17.8h1.5L974.7,1846.6z"/>
			<path class="st3" d="M1001.7,1851.4h-1.5v-17.8h1.5V1851.4z"/>
			<path class="st3" d="M1008.5,1833.6l6.6,15.7l6.6-15.7h2v17.8h-1.5v-7.7l0.1-7.9l-6.6,15.7h-1.2l-6.6-15.6l0.1,7.8v7.8h-1.5
				v-17.8H1008.5z"/>
			<path class="st3" d="M1038,1846.4h-8.1l-1.8,5h-1.6l6.7-17.8h1.4l6.7,17.8h-1.6L1038,1846.4z M1030.4,1845.1h7.1l-3.6-9.7
				L1030.4,1845.1z"/>
			<path class="st3" d="M1056.7,1849.3c-0.5,0.7-1.3,1.3-2.4,1.7c-1.1,0.4-2.4,0.6-3.7,0.6c-1.4,0-2.6-0.3-3.7-1s-1.9-1.6-2.5-2.8
				s-0.9-2.6-0.9-4.2v-2.2c0-2.5,0.6-4.4,1.9-5.8c1.2-1.4,2.9-2.1,5-2.1c1.8,0,3.3,0.5,4.4,1.4c1.1,0.9,1.8,2.2,2,3.9h-1.5
				c-0.2-1.3-0.8-2.3-1.6-3c-0.8-0.7-1.9-1-3.3-1c-1.7,0-3,0.6-3.9,1.8s-1.5,2.8-1.5,5v2.1c0,1.4,0.2,2.5,0.7,3.6
				c0.5,1,1.1,1.8,2,2.4c0.9,0.6,1.8,0.9,3,0.9c1.3,0,2.4-0.2,3.3-0.6c0.6-0.3,1-0.6,1.3-0.9v-4.6h-4.8v-1.3h6.3V1849.3z"/>
			<path class="st3" d="M1070.8,1842.9h-8.3v7.3h9.6v1.3H1061v-17.8h11v1.3h-9.5v6.7h8.3V1842.9z"/>
			<path class="st3" d="M1092.8,1834.9h-6.1v16.5h-1.5v-16.5h-6.1v-1.3h13.7V1834.9z"/>
			<path class="st3" d="M1108.5,1843.5c0,1.6-0.3,3.1-0.8,4.3s-1.4,2.2-2.4,2.9s-2.3,1-3.6,1c-2.1,0-3.8-0.7-5-2.2
				c-1.3-1.5-1.9-3.5-1.9-6v-1.8c0-1.6,0.3-3.1,0.9-4.3c0.6-1.2,1.4-2.2,2.4-2.9c1-0.7,2.3-1,3.6-1s2.6,0.3,3.6,1
				c1,0.7,1.9,1.6,2.4,2.8s0.9,2.6,0.9,4.2V1843.5z M1107,1841.5c0-2.1-0.5-3.8-1.5-5c-1-1.2-2.3-1.8-4-1.8c-1.7,0-3,0.6-3.9,1.8
				s-1.5,2.9-1.5,5.1v1.9c0,2.1,0.5,3.8,1.5,5c1,1.2,2.3,1.8,4,1.8c1.7,0,3-0.6,4-1.8s1.4-2.9,1.4-5.1V1841.5z"/>
			<path class="st3" d="M1128.2,1843.1h-8.3v8.3h-1.5v-17.8h11v1.3h-9.5v6.9h8.3V1843.1z"/>
			<path class="st3" d="M1144.7,1833.6v12.1c0,1.2-0.3,2.2-0.8,3.1c-0.5,0.9-1.3,1.6-2.2,2c-0.9,0.5-2,0.7-3.3,0.7
				c-1.9,0-3.4-0.5-4.5-1.5c-1.1-1-1.7-2.4-1.8-4.2v-12.2h1.5v12c0,1.5,0.4,2.7,1.3,3.5c0.9,0.8,2,1.2,3.5,1.2s2.6-0.4,3.5-1.2
				s1.3-2,1.3-3.5v-12H1144.7z"/>
			<path class="st3" d="M1150.4,1850.1h8.8v1.3h-10.3v-17.8h1.5V1850.1z"/>
			<path class="st3" d="M1163.5,1850.1h8.8v1.3H1162v-17.8h1.5V1850.1z"/>
			<path class="st3" d="M1191.3,1847c0-1-0.3-1.8-1-2.3c-0.7-0.6-2-1.1-3.8-1.6c-1.8-0.5-3.2-1.1-4-1.7c-1.2-0.9-1.8-2-1.8-3.4
				c0-1.4,0.6-2.5,1.7-3.3c1.1-0.8,2.5-1.3,4.3-1.3c1.2,0,2.2,0.2,3.2,0.7s1.7,1.1,2.2,1.9s0.8,1.7,0.8,2.7h-1.5
				c0-1.2-0.4-2.2-1.2-2.9c-0.8-0.7-1.9-1.1-3.3-1.1c-1.4,0-2.4,0.3-3.2,0.9s-1.2,1.4-1.2,2.4c0,0.9,0.4,1.6,1.1,2.2
				s1.9,1.1,3.5,1.5c1.6,0.4,2.8,0.9,3.6,1.4s1.4,1,1.9,1.7c0.4,0.7,0.6,1.4,0.6,2.3c0,1.4-0.6,2.5-1.7,3.4s-2.6,1.3-4.4,1.3
				c-1.3,0-2.4-0.2-3.4-0.7c-1-0.4-1.8-1.1-2.4-1.9c-0.5-0.8-0.8-1.7-0.8-2.8h1.5c0,1.3,0.5,2.2,1.4,3c0.9,0.7,2.2,1.1,3.7,1.1
				c1.4,0,2.5-0.3,3.3-0.9C1190.9,1848.8,1191.3,1848,1191.3,1847z"/>
			<path class="st3" d="M1197.9,1851.4h-1.5v-17.8h1.5V1851.4z"/>
			<path class="st3" d="M1203.4,1850.1h11v1.3h-12.8v-1.1l10.5-15.4h-10.2v-1.3h12.1v1.1L1203.4,1850.1z"/>
			<path class="st3" d="M1227.5,1842.9h-8.3v7.3h9.6v1.3h-11.1v-17.8h11v1.3h-9.5v6.7h8.3V1842.9z"/>
		</g>
	</g>
</g>
</svg>
