<svg xmlns="http://www.w3.org/2000/svg" width="180.221" height="16.577" viewBox="0 0 180.221 16.577">
  <g id="Raggruppa_17" data-name="Raggruppa 17" transform="translate(-138.5 -2228)">
    <path id="behance-outline-svgrepo-com" d="M16.279,7.3H11.735V6h4.543Zm1.12,6.49a3.284,3.284,0,0,1-3.311,1.947,3.353,3.353,0,0,1-3.611-3.683c0-2.538,1.509-3.842,3.548-3.842a3.257,3.257,0,0,1,3.489,2.873,8.7,8.7,0,0,1,.062,1.389h-5.21a1.748,1.748,0,0,0,2.978,1.317Zm-4.988-2.6h3.222a1.45,1.45,0,0,0-1.608-1.44A1.487,1.487,0,0,0,12.41,11.192ZM6.2,15.728H2V6.014H6.513c3.554.053,3.622,3.533,1.765,4.482,2.246.818,2.322,5.232-2.081,5.232ZM3.947,9.894H6.273c1.628,0,1.886-1.947-.2-1.947H3.947V9.894Zm2.2,1.947h-2.2V13.8H6.115c1.983,0,1.861-1.957.032-1.957Z" transform="translate(137 2225.072)" fill="none" stroke="#000" stroke-linejoin="round" stroke-width="1"/>
    <path id="facebook-outline-svgrepo-com" d="M17.577,9.788a7.788,7.788,0,1,0-9.005,7.694V12.04H6.594V9.788H8.572V8.073a2.748,2.748,0,0,1,2.942-3.03,11.977,11.977,0,0,1,1.743.152V7.111h-.982a1.126,1.126,0,0,0-1.269,1.216V9.788h2.16L12.82,12.04H11.005v5.442A7.79,7.79,0,0,0,17.577,9.788Z" transform="translate(178.106 2226.5)" fill="none" stroke="#000" stroke-linejoin="round" stroke-width="1"/>
    <path id="instagram-outline-svgrepo-com" d="M3.048,6.085a5.28,5.28,0,0,1,.33-1.745l0-.006a3.261,3.261,0,0,1,.767-1.177l0,0,0,0a3.255,3.255,0,0,1,1.177-.766l.008,0a5.248,5.248,0,0,1,1.744-.33M3.048,6.085C3.01,6.935,3,7.2,3,9.4s.009,2.469.048,3.319m0-6.638V6.3m.333,8.175a3.255,3.255,0,0,0,.766,1.177l0,0,0,0a3.261,3.261,0,0,0,1.177.767l.007,0a5.264,5.264,0,0,0,1.744.329m-3.7-2.285,0-.008a5.248,5.248,0,0,1-.33-1.744m.333,1.751-.01-.053m-.323-1.7.013.069m-.013-.069v-.215m.323,1.914-.31-1.63m.31,1.63a5.192,5.192,0,0,1-.31-1.63m.31,1.63.014.036a3.414,3.414,0,0,0,1.965,1.965,5.211,5.211,0,0,0,1.735.327c.874.04,1.145.048,3.319.048s2.445-.008,3.32-.048a5.224,5.224,0,0,0,1.734-.327,3.414,3.414,0,0,0,1.965-1.965,5.209,5.209,0,0,0,.327-1.735c.04-.874.048-1.145.048-3.319s-.008-2.445-.048-3.32a5.213,5.213,0,0,0-.329-1.74,3.413,3.413,0,0,0-1.957-1.958,5.2,5.2,0,0,0-1.74-.329l-.215-.01M3.061,12.792q0-.034,0-.068c0-.076-.007-.147-.01-.215M7.085,2.048C7.935,2.009,8.2,2,10.4,2s2.468.01,3.319.048m-6.638,0H7.3m6.423,0h-.214m.214,0a5.281,5.281,0,0,1,1.745.33l.006,0a3.261,3.261,0,0,1,1.177.767l0,0,0,0a3.259,3.259,0,0,1,.767,1.177l0,.007a5.247,5.247,0,0,1,.33,1.744M7.3,2.048h6.209m-6.209,0c.72-.031,1.118-.038,3.1-.038s2.384.007,3.1.038m-6.209,0-.215.01a5.222,5.222,0,0,0-1.734.327A3.414,3.414,0,0,0,3.387,4.344a5.2,5.2,0,0,0-.329,1.741c0,.076-.007.147-.01.215M17.76,12.723a5.262,5.262,0,0,1-.329,1.744l0,.007a3.261,3.261,0,0,1-.767,1.177l0,0,0,0a3.255,3.255,0,0,1-1.177.766l-.008,0a5.249,5.249,0,0,1-1.744.33M3.048,12.508c-.031-.72-.038-1.118-.038-3.1s.007-2.384.038-3.1m0,6.209V6.3m6.039,6.284a3.441,3.441,0,1,0-1.116-.746A3.441,3.441,0,0,0,9.087,12.583ZM7.963,6.963A3.452,3.452,0,1,1,6.952,9.4,3.452,3.452,0,0,1,7.963,6.963ZM15.8,5.148a.988.988,0,1,1-.289-.7A.988.988,0,0,1,15.8,5.148Z" transform="translate(218.211 2226.5)" fill="none" stroke="#000" stroke-linejoin="round" stroke-width="1"/>
    <path id="linkedin-outline-svgrepo-com" d="M17.577,3.145V16.432a1.145,1.145,0,0,1-1.145,1.145H3.145A1.145,1.145,0,0,1,2,16.432V3.145A1.145,1.145,0,0,1,3.145,2H16.432a1.145,1.145,0,0,1,1.145,1.145Zm-11,4.811H4.291v7.33H6.581Zm.206-2.52a1.319,1.319,0,0,0-1.31-1.329H5.436a1.329,1.329,0,0,0,0,2.657h0A1.319,1.319,0,0,0,6.788,5.477Zm8.5,5.4a2.725,2.725,0,0,0-2.795-3.06,2.611,2.611,0,0,0-2.318,1.182h-.064v-1H7.956v7.33h2.291v-3.9a1.521,1.521,0,0,1,1.374-1.64h.087c.728,0,1.269.458,1.269,1.613v3.926h2.291Z" transform="translate(259.538 2226.5)" fill="none" stroke="#000" stroke-linejoin="round" stroke-width="1"/>
    <path id="pinterest-outline-svgrepo-com" d="M2,9.788a7.792,7.792,0,0,0,5.017,7.281,7.658,7.658,0,0,1,.016-2.314c.141-.6.909-3.854.909-3.854A2.8,2.8,0,0,1,7.708,9.75c0-1.077.624-1.882,1.4-1.882a.974.974,0,0,1,.981,1.092,15.621,15.621,0,0,1-.643,2.582,1.126,1.126,0,0,0,1.148,1.4c1.378,0,2.438-1.453,2.438-3.551A3.061,3.061,0,0,0,9.8,6.237,3.356,3.356,0,0,0,6.3,9.6a3.014,3.014,0,0,0,.577,1.769.234.234,0,0,1,.054.223c-.059.245-.19.772-.215.879-.034.141-.112.172-.26.1a3.474,3.474,0,0,1-1.573-3c0-2.446,1.776-4.692,5.122-4.692a4.55,4.55,0,0,1,4.78,4.478c0,2.672-1.684,4.823-4.023,4.823a2.075,2.075,0,0,1-1.777-.891s-.389,1.481-.483,1.843a8.865,8.865,0,0,1-1.005,2.1A7.79,7.79,0,1,0,2,9.788Z" transform="translate(300.647 2226.5)" fill="none" stroke="#000" stroke-linejoin="round" stroke-width="1"/>
  </g>
</svg>
